<svg xmlns="http://www.w3.org/2000/svg" width="24" height="24" fill="none" viewBox="0 0 24 24" id="magazine">
  <path fill="#000" fill-rule="evenodd" d="M8.25 5C8.25 4.58579 8.58579 4.25 9 4.25H19C20.5188 4.25 21.75 5.48122 21.75 7V17C21.75 18.5188 20.5188 19.75 19 19.75H9C8.58579 19.75 8.25 19.4142 8.25 19V5ZM12.5 7.25C12.0858 7.25 11.75 7.58579 11.75 8C11.75 8.41421 12.0858 8.75 12.5 8.75H17.5C17.9142 8.75 18.25 8.41421 18.25 8C18.25 7.58579 17.9142 7.25 17.5 7.25H12.5ZM11.75 16C11.75 15.5858 12.0858 15.25 12.5 15.25H17.5C17.9142 15.25 18.25 15.5858 18.25 16C18.25 16.4142 17.9142 16.75 17.5 16.75H12.5C12.0858 16.75 11.75 16.4142 11.75 16ZM12.5 12.25C12.0858 12.25 11.75 12.5858 11.75 13C11.75 13.4142 12.0858 13.75 12.5 13.75H17.5C17.9142 13.75 18.25 13.4142 18.25 13C18.25 12.5858 17.9142 12.25 17.5 12.25H12.5Z" clip-rule="evenodd"></path>
  <path stroke="#000" stroke-linecap="round" stroke-linejoin="round" stroke-width="1.5" d="M9 19C9 17.3431 7.65685 16 6 16C4.34315 16 3 17.3431 3 19C3 20.6569 4.34315 22 6 22H17"></path>
  <path stroke="#000" stroke-linecap="round" stroke-linejoin="round" stroke-width="1.5" d="M9 5C9 3.34315 7.65685 2 6 2C4.34315 2 3 3.34315 3 5V19"></path>
</svg>
